<svg width="16" height="12" viewBox="0 0 16 12" fill="none" xmlns="http://www.w3.org/2000/svg">
<path fill-rule="evenodd" clip-rule="evenodd" d="M9.64285 0.2603C9.89617 0.00698318 10.3069 0.00698318 10.5602 0.260301L15.81 5.51012C15.9317 5.63177 16 5.79676 16 5.96879C16 6.14083 15.9317 6.30582 15.81 6.42746L10.5602 11.6773C10.3069 11.9306 9.89617 11.9306 9.64285 11.6773C9.38953 11.424 9.38953 11.0133 9.64285 10.7599L14.434 5.96879L9.64285 1.17764C9.38953 0.924326 9.38953 0.513618 9.64285 0.2603Z" fill="#111928"/>
<path fill-rule="evenodd" clip-rule="evenodd" d="M0 5.96864C0 5.61039 0.290415 5.31998 0.64866 5.31998H15.2046C15.5628 5.31998 15.8532 5.61039 15.8532 5.96864C15.8532 6.32688 15.5628 6.6173 15.2046 6.6173H0.64866C0.290415 6.6173 0 6.32688 0 5.96864Z" fill="#111928"/>
</svg>
