<svg width="16" height="17" viewBox="0 0 16 17" fill="none" xmlns="http://www.w3.org/2000/svg">
<path fill-rule="evenodd" clip-rule="evenodd" d="M5.40445 11.3253C5.40445 11.0171 5.65435 10.7672 5.96263 10.7672H9.68382C9.99209 10.7672 10.242 11.0171 10.242 11.3253C10.242 11.6336 9.99209 11.8835 9.68382 11.8835H5.96263C5.65435 11.8835 5.40445 11.6336 5.40445 11.3253Z" fill="#1A2956"/>
<path fill-rule="evenodd" clip-rule="evenodd" d="M7.82322 8.95089C8.1315 8.95089 8.3814 9.2008 8.3814 9.50907V13.2303C8.3814 13.5385 8.1315 13.7884 7.82322 13.7884C7.51495 13.7884 7.26504 13.5385 7.26504 13.2303V9.50907C7.26504 9.2008 7.51495 8.95089 7.82322 8.95089Z" fill="#1A2956"/>
<path fill-rule="evenodd" clip-rule="evenodd" d="M6.10874 2.0146C5.6318 2.22972 5.1843 2.75537 4.71055 3.85116C4.70351 3.86743 4.69571 3.88335 4.68716 3.89887C4.68716 3.89887 4.68566 3.90308 4.68466 3.90596L4.67564 3.93269C4.6703 3.94869 4.66425 3.96445 4.65748 3.9799L4.60896 4.09082L4.57918 4.16526L3.71071 6.23948C3.86838 6.22145 4.02858 6.21216 4.19076 6.21216H5.94457L7.74109 2.04298C6.99191 1.82383 6.48954 1.84285 6.10874 2.0146ZM5.64975 0.996967C6.53114 0.599431 7.53997 0.747521 8.69189 1.18819C8.83373 1.24245 8.94734 1.35216 9.00651 1.49202C9.06569 1.63188 9.06532 1.78981 9.0055 1.9294L8.98318 1.98149L6.82445 6.99123C6.73625 7.19592 6.53473 7.32852 6.31184 7.32852H4.19076C3.76174 7.32852 3.3519 7.41678 2.97959 7.57454C2.77061 7.66309 2.52882 7.61628 2.36798 7.45613C2.20714 7.29599 2.15929 7.0544 2.24694 6.84503L3.54764 3.73823L3.57575 3.66795C3.57796 3.66244 3.58025 3.65696 3.58263 3.65152L3.62429 3.55631C3.63698 3.51839 3.66059 3.45201 3.6965 3.38361C4.19542 2.23678 4.78393 1.38749 5.64975 0.996967Z" fill="#1A2956"/>
<path fill-rule="evenodd" clip-rule="evenodd" d="M7.97906 1.48959C8.09341 1.22276 8.39321 1.08813 8.66862 1.17993C8.76058 1.21059 8.88765 1.26545 8.96613 1.29933C8.99344 1.31112 9.01486 1.32037 9.02687 1.32518L9.03611 1.32887L10.6795 2.02053C11.6186 2.41003 12.3621 2.84715 12.8378 3.43118C12.9219 3.53234 13.0016 3.63944 13.0737 3.76982C13.1494 3.88979 13.2209 4.02778 13.2687 4.18641C13.3009 4.26393 13.3264 4.34093 13.3454 4.41338C13.5992 5.22292 13.421 6.13623 13.0213 7.12782C12.9126 7.39739 12.6153 7.53846 12.3377 7.45212C12.0662 7.36763 11.7663 7.32847 11.4542 7.32847L6.31184 7.32852C6.12401 7.32852 5.94843 7.234 5.84519 7.0771C5.74195 6.9202 5.72455 6.72189 5.79888 6.5494L7.95717 1.54068L7.97906 1.48959ZM8.78721 2.4354L7.15981 6.21211H11.4542C11.6836 6.21211 11.9171 6.22842 12.1492 6.26542C12.3721 5.58467 12.3937 5.10036 12.2773 4.73815C12.2735 4.72646 12.2702 4.71464 12.2672 4.70272C12.2599 4.67352 12.2479 4.63716 12.2316 4.60054C12.2197 4.57373 12.2099 4.54601 12.2024 4.51766C12.1922 4.4796 12.1706 4.42926 12.1233 4.35566C12.1155 4.34354 12.1082 4.33113 12.1014 4.31845C12.0728 4.26532 12.0378 4.21495 11.978 4.14323L11.9736 4.1379C11.6754 3.77096 11.1402 3.42005 10.2505 3.05119L10.2478 3.05006L8.78721 2.4354Z" fill="#1A2956"/>
<path fill-rule="evenodd" clip-rule="evenodd" d="M2.98768 7.57469C1.89096 8.04885 1.12508 9.13918 1.12508 10.4024V11.8537C1.12508 12.0021 1.1375 12.1558 1.1576 12.3099C1.15914 12.3216 1.1603 12.3334 1.16108 12.3453C1.23326 13.4383 1.55557 14.2019 2.06399 14.7104C2.57242 15.2188 3.336 15.5411 4.42906 15.6133C4.4409 15.6141 4.45271 15.6152 4.46448 15.6167C4.61858 15.6368 4.77227 15.6493 4.92069 15.6493H10.7258C12.0208 15.6493 12.9181 15.3412 13.5052 14.8129C14.0871 14.2893 14.4491 13.4724 14.5147 12.2708C14.5222 12.1202 14.5288 11.9858 14.5288 11.8537V10.4024C14.5288 9.01241 13.6045 7.83935 12.351 7.45385C12.0769 7.37315 11.774 7.32869 11.4625 7.32869H4.19878C3.7726 7.32869 3.37007 7.4158 2.98768 7.57469ZM2.55516 6.54552C3.06492 6.33312 3.61397 6.21233 4.19878 6.21233H11.4625C11.8794 6.21233 12.29 6.27176 12.6701 6.38405L12.6755 6.38566C14.3828 6.90899 15.6452 8.50384 15.6452 10.4024V11.8537C15.6452 12.0165 15.6371 12.1771 15.6299 12.3221L15.6296 12.3281L15.6295 12.3305C15.5535 13.7258 15.1192 14.8623 14.2519 15.6428C13.3895 16.4188 12.1844 16.7656 10.7258 16.7656H4.92069C4.71843 16.7656 4.52112 16.7494 4.33786 16.726C3.07217 16.6395 2.02604 16.2512 1.27461 15.4997C0.523181 14.7483 0.134853 13.7022 0.0483329 12.4365C0.0249967 12.2532 0.00872154 12.0559 0.00872154 11.8537V10.4024C0.00872154 8.67495 1.05733 7.19109 2.5489 6.54817L2.55516 6.54552Z" fill="#1A2956"/>
<path fill-rule="evenodd" clip-rule="evenodd" d="M4.49601 3.59678C4.62635 3.75651 4.65879 3.9751 4.57918 4.16526L3.276 7.27615C3.22018 7.40949 3.11481 7.51597 2.98207 7.57318C1.88369 8.04662 1.11636 9.13783 1.11636 10.4022C1.11636 10.7105 0.866452 10.9604 0.558179 10.9604C0.249905 10.9604 0 10.7105 0 10.4022V8.2216C0 5.83693 1.6963 3.84718 3.95564 3.40203C4.15791 3.36218 4.36567 3.43706 4.49601 3.59678ZM1.1887 7.47963C1.51779 7.14138 1.90327 6.85834 2.32968 6.64575L3.05744 4.90745C2.10478 5.44137 1.40727 6.37451 1.1887 7.47963Z" fill="#1A2956"/>
<path fill-rule="evenodd" clip-rule="evenodd" d="M12.363 3.97632C12.535 3.8066 12.7965 3.76673 13.0112 3.87753C14.5771 4.68573 15.6428 6.34087 15.6428 8.22125V10.4019C15.6428 10.7101 15.3929 10.96 15.0847 10.96C14.7764 10.96 14.5265 10.7101 14.5265 10.4019C14.5265 9.01593 13.6063 7.83804 12.3492 7.46091C12.1991 7.41589 12.0749 7.30988 12.0068 7.16877C11.9388 7.02766 11.9332 6.86443 11.9913 6.71897C12.3608 5.79527 12.4204 5.1791 12.2867 4.72454C12.2831 4.71251 12.28 4.70036 12.2773 4.68812C12.2705 4.65739 12.2618 4.63492 12.2559 4.62316C12.1479 4.40709 12.1911 4.14604 12.363 3.97632ZM14.4528 7.47542C14.3065 6.74372 13.9495 6.08565 13.4487 5.57315C13.4143 5.90211 13.3358 6.24445 13.221 6.60104C13.6837 6.81597 14.1006 7.11384 14.4528 7.47542Z" fill="#1A2956"/>
</svg>
