<svg width="12" height="13" viewBox="0 0 12 13" fill="none" xmlns="http://www.w3.org/2000/svg">
<path d="M6 12.8203C2.68629 12.8203 0 10.134 0 6.82031C0 3.5066 2.68629 0.820312 6 0.820312C9.31368 0.820312 12 3.5066 12 6.82031C12 10.134 9.31368 12.8203 6 12.8203ZM6 11.6203C8.65098 11.6203 10.8 9.47129 10.8 6.82031C10.8 4.16934 8.65098 2.02031 6 2.02031C3.34903 2.02031 1.2 4.16934 1.2 6.82031C1.2 9.47129 3.34903 11.6203 6 11.6203ZM5.4 3.82031H6.6V5.02031H5.4V3.82031ZM5.4 6.22031H6.6V9.82031H5.4V6.22031Z" fill="#111928"/>
</svg>
