<svg width="12" height="13" viewBox="0 0 12 13" fill="none" xmlns="http://www.w3.org/2000/svg">
<path d="M4.80006 10.3656C3.8507 10.3656 2.92266 10.0841 2.13329 9.55668C1.34392 9.02925 0.728689 8.27959 0.365385 7.4025C0.00207977 6.52542 -0.0929773 5.5603 0.0922339 4.62919C0.277445 3.69808 0.734606 2.84281 1.40591 2.17151C2.07721 1.50022 2.93249 1.04307 3.86361 0.857858C4.79473 0.672649 5.75986 0.767705 6.63696 1.13101C7.51406 1.49431 8.26372 2.10953 8.79116 2.89889C9.3186 3.68824 9.60011 4.61627 9.60011 5.56562C9.59869 6.83822 9.09251 8.05829 8.19263 8.95816C7.29276 9.85802 6.07267 10.3642 4.80006 10.3656ZM4.80006 1.96563C4.08804 1.96563 3.39201 2.17676 2.79998 2.57234C2.20796 2.96791 1.74653 3.53015 1.47405 4.18796C1.20157 4.84578 1.13028 5.56962 1.26919 6.26795C1.4081 6.96628 1.75097 7.60774 2.25444 8.11121C2.75792 8.61468 3.39939 8.95754 4.09772 9.09645C4.79606 9.23536 5.51991 9.16406 6.17773 8.89159C6.83556 8.61911 7.39781 8.15769 7.79338 7.56568C8.18896 6.97366 8.4001 6.27764 8.4001 5.56562C8.39915 4.61114 8.01955 3.69602 7.34462 3.02109C6.66969 2.34617 5.75456 1.96658 4.80006 1.96563Z" fill="#9CA3AF"/>
<path d="M11.4001 12.7656C11.241 12.7656 11.0884 12.7024 10.9759 12.5898L8.57589 10.1898C8.46659 10.0767 8.40611 9.9251 8.40748 9.76779C8.40885 9.61047 8.47195 9.45998 8.5832 9.34874C8.69444 9.23749 8.84493 9.17439 9.00225 9.17302C9.15957 9.17165 9.31114 9.23213 9.4243 9.34143L11.8243 11.7414C11.9082 11.8253 11.9653 11.9322 11.9885 12.0486C12.0116 12.165 11.9997 12.2856 11.9543 12.3952C11.9089 12.5048 11.832 12.5985 11.7334 12.6645C11.6348 12.7304 11.5188 12.7656 11.4001 12.7656Z" fill="#9CA3AF"/>
</svg>
