<svg width="12" height="12" viewBox="0 0 12 12" fill="none" xmlns="http://www.w3.org/2000/svg">
<path d="M7.48629 4.6567L5.20371 3.28715C5.13341 3.24516 5.04576 3.24424 4.97362 3.28441C4.90241 3.32505 4.85814 3.40128 4.85814 3.483V6.2221C4.85814 6.30426 4.90243 6.38052 4.97362 6.42113C5.00878 6.44077 5.04759 6.45036 5.08639 6.45036C5.12703 6.45036 5.16764 6.43986 5.20371 6.41795L7.48629 5.0484C7.55522 5.00732 7.59723 4.93291 7.59723 4.85255C7.59723 4.77219 7.55524 4.69778 7.48629 4.6567ZM5.31465 5.81899V3.88611L6.92523 4.85255L5.31465 5.81899Z" fill="#1A2956"/>
<path d="M11.0211 0.972141H6.22768V0.743883C6.22768 0.617895 6.12541 0.515625 5.99942 0.515625C5.87344 0.515625 5.77117 0.617895 5.77117 0.743883V0.972141H0.977743C0.600203 0.972141 0.292969 1.27938 0.292969 1.65692C0.292969 2.03446 0.600203 2.34169 0.977743 2.34169H1.206V8.04815C1.206 8.1746 1.30827 8.2764 1.43426 8.2764H5.77117V8.86669L4.01175 10.6261C3.92272 10.7151 3.92272 10.8594 4.01175 10.9489C4.10123 11.0379 4.24549 11.0379 4.33497 10.9489L5.77117 9.51219V10.7872C5.77117 10.9137 5.87344 11.0155 5.99942 11.0155C6.12541 11.0155 6.22768 10.9137 6.22768 10.7872V9.53457L7.66526 10.9502C7.71 10.9936 7.76798 11.0155 7.82549 11.0155C7.88438 11.0155 7.94327 10.9927 7.98801 10.9475C8.07657 10.8575 8.07521 10.7133 7.98574 10.6247L6.22768 8.89406V8.2764H10.5646C10.6906 8.2764 10.7928 8.1746 10.7928 8.04815V2.34169H11.0211C11.3986 2.34169 11.7059 2.03446 11.7059 1.65692C11.7059 1.27938 11.3986 0.972141 11.0211 0.972141ZM10.3363 7.81989H1.66252V2.34169H10.3363V7.81989ZM11.0211 1.88517H0.977743C0.851755 1.88517 0.749485 1.7829 0.749485 1.65692C0.749485 1.53137 0.851755 1.42866 0.977743 1.42866H11.0211C11.1471 1.42866 11.2494 1.53137 11.2494 1.65692C11.2494 1.78293 11.1471 1.88517 11.0211 1.88517Z" fill="#1A2956"/>
</svg>
