<svg width="11" height="13" viewBox="0 0 11 13" fill="none" xmlns="http://www.w3.org/2000/svg">
<path fill-rule="evenodd" clip-rule="evenodd" d="M3.24771 0.320312C3.52131 0.320312 3.74312 0.542116 3.74312 0.815725V2.4671C3.74312 2.74071 3.52131 2.96251 3.24771 2.96251C2.9741 2.96251 2.75229 2.74071 2.75229 2.4671V0.815725C2.75229 0.542116 2.9741 0.320312 3.24771 0.320312Z" fill="currentColor"/>
<path fill-rule="evenodd" clip-rule="evenodd" d="M7.65137 0.320312C7.92498 0.320312 8.14679 0.542116 8.14679 0.815725V2.4671C8.14679 2.74071 7.92498 2.96251 7.65137 2.96251C7.37777 2.96251 7.15596 2.74071 7.15596 2.4671V0.815725C7.15596 0.542116 7.37777 0.320312 7.65137 0.320312Z" fill="currentColor"/>
<path fill-rule="evenodd" clip-rule="evenodd" d="M0.275229 4.71848C0.275229 4.44487 0.497033 4.22306 0.770642 4.22306H10.1284C10.402 4.22306 10.6239 4.44487 10.6239 4.71848C10.6239 4.99208 10.402 5.21389 10.1284 5.21389H0.770642C0.497033 5.21389 0.275229 4.99208 0.275229 4.71848Z" fill="currentColor"/>
<path fill-rule="evenodd" clip-rule="evenodd" d="M1.51212 2.7354C1.17833 3.09486 0.990826 3.64396 0.990826 4.39371V9.07261C0.990826 9.82235 1.17833 10.3715 1.51212 10.7309C1.83973 11.0837 2.37883 11.3295 3.24771 11.3295H7.65137C8.52025 11.3295 9.05935 11.0837 9.38696 10.7309C9.72075 10.3715 9.90826 9.82235 9.90826 9.07261V4.39371C9.90826 3.64396 9.72075 3.09486 9.38696 2.7354C9.05935 2.38259 8.52025 2.13683 7.65137 2.13683H3.24771C2.37883 2.13683 1.83973 2.38259 1.51212 2.7354ZM0.786047 2.06119C1.35293 1.4507 2.18998 1.146 3.24771 1.146H7.65137C8.7091 1.146 9.54615 1.4507 10.113 2.06119C10.6737 2.66503 10.8991 3.49207 10.8991 4.39371V9.07261C10.8991 9.97424 10.6737 10.8013 10.113 11.4051C9.54615 12.0156 8.7091 12.3203 7.65137 12.3203H3.24771C2.18998 12.3203 1.35293 12.0156 0.786047 11.4051C0.225336 10.8013 0 9.97424 0 9.07261V4.39371C0 3.49207 0.225336 2.66503 0.786047 2.06119Z" fill="currentColor"/>
<path fill-rule="evenodd" clip-rule="evenodd" d="M4.78597 7.2562C4.78597 6.89139 5.0817 6.59565 5.44652 6.59565H5.45146C5.81627 6.59565 6.11201 6.89139 6.11201 7.2562C6.11201 7.62101 5.81627 7.91675 5.45146 7.91675H5.44652C5.0817 7.91675 4.78597 7.62101 4.78597 7.2562Z" fill="currentColor"/>
<path fill-rule="evenodd" clip-rule="evenodd" d="M2.7497 7.2562C2.7497 6.89139 3.04544 6.59565 3.41025 6.59565H3.41519C3.78001 6.59565 4.07574 6.89139 4.07574 7.2562C4.07574 7.62101 3.78001 7.91675 3.41519 7.91675H3.41025C3.04544 7.91675 2.7497 7.62101 2.7497 7.2562Z" fill="currentColor"/>
<path fill-rule="evenodd" clip-rule="evenodd" d="M2.7497 8.90758C2.7497 8.54276 3.04544 8.24703 3.41025 8.24703H3.41519C3.78001 8.24703 4.07574 8.54276 4.07574 8.90758C4.07574 9.27239 3.78001 9.56813 3.41519 9.56813H3.41025C3.04544 9.56813 2.7497 9.27239 2.7497 8.90758Z" fill="currentColor"/>
</svg>
