<svg width="12" height="12" viewBox="0 0 12 12" fill="none" xmlns="http://www.w3.org/2000/svg">
<path fill-rule="evenodd" clip-rule="evenodd" d="M0.418605 11.1493C0.649794 11.1493 0.837209 10.9619 0.837209 10.7307V0.68423C0.837209 0.453041 0.649794 0.265625 0.418605 0.265625C0.187416 0.265625 0 0.453041 0 0.68423V10.7307C0 10.9619 0.187416 11.1493 0.418605 11.1493Z" fill="currentColor"/>
<path fill-rule="evenodd" clip-rule="evenodd" d="M7.46232 11.1493C8.00049 11.1493 8.43907 10.7108 8.43907 10.1726V9.27959C8.43907 8.74143 8.00049 8.30285 7.46232 8.30285H2.65116C2.113 8.30285 1.67442 8.74143 1.67442 9.27959V10.1726C1.67442 10.7108 2.113 11.1493 2.65116 11.1493H7.46232ZM7.60186 10.1726C7.60186 10.2484 7.53811 10.3121 7.46232 10.3121H2.65116C2.57537 10.3121 2.51163 10.2484 2.51163 10.1726V9.27959C2.51163 9.2038 2.57537 9.14006 2.65116 9.14006H7.46232C7.53811 9.14006 7.60186 9.2038 7.60186 9.27959V10.1726Z" fill="currentColor"/>
<path fill-rule="evenodd" clip-rule="evenodd" d="M9.24282 7.13118C9.78099 7.13118 10.2196 6.6926 10.2196 6.15443V5.26142C10.2196 4.72326 9.78099 4.28468 9.24282 4.28468H2.6512C2.11303 4.28468 1.67445 4.72326 1.67445 5.26142V6.15443C1.67445 6.6926 2.11303 7.13118 2.6512 7.13118H9.24282ZM9.38236 6.15443C9.38236 6.23022 9.31861 6.29397 9.24282 6.29397H2.6512C2.57541 6.29397 2.51166 6.23022 2.51166 6.15443V5.26142C2.51166 5.18564 2.57541 5.12189 2.6512 5.12189H9.24282C9.31861 5.12189 9.38236 5.18564 9.38236 5.26142V6.15443Z" fill="currentColor"/>
<path fill-rule="evenodd" clip-rule="evenodd" d="M11.0233 3.11301C11.5614 3.11301 12 2.67443 12 2.13626V1.24325C12 0.705089 11.5614 0.266511 11.0233 0.266511H2.65116C2.113 0.266511 1.67442 0.705089 1.67442 1.24325V2.13626C1.67442 2.67443 2.113 3.11301 2.65116 3.11301H11.0233ZM11.1628 2.13626C11.1628 2.21205 11.099 2.2758 11.0233 2.2758H2.65116C2.57537 2.2758 2.51163 2.21205 2.51163 2.13626V1.24325C2.51163 1.16747 2.57537 1.10372 2.65116 1.10372H11.0233C11.099 1.10372 11.1628 1.16747 11.1628 1.24325V2.13626Z" fill="currentColor"/>
</svg>
