<svg width="12" height="10" viewBox="0 0 12 10" fill="none" xmlns="http://www.w3.org/2000/svg">
<path d="M11.1429 4.57909H2.9268L4.89211 2.5158C4.97398 2.43279 5.03927 2.3335 5.08419 2.22372C5.12911 2.11394 5.15275 1.99587 5.15374 1.87639C5.15473 1.75691 5.13305 1.63842 5.08995 1.52784C5.04685 1.41725 4.98321 1.31679 4.90274 1.2323C4.82226 1.14781 4.72657 1.081 4.62123 1.03576C4.5159 0.990513 4.40304 0.967746 4.28923 0.968784C4.17543 0.969822 4.06296 0.994645 3.95839 1.0418C3.85382 1.08896 3.75925 1.15751 3.68018 1.24345L0.251804 4.84274C0.171986 4.92632 0.108659 5.02562 0.06545 5.13494C0.0222414 5.24426 0 5.36145 0 5.47981C0 5.59817 0.0222414 5.71536 0.06545 5.82468C0.108659 5.934 0.171986 6.03329 0.251804 6.11688L3.68018 9.71616C3.84183 9.88007 4.05834 9.97077 4.28306 9.96872C4.50779 9.96667 4.72276 9.87203 4.88167 9.7052C5.04059 9.53837 5.13073 9.31268 5.13268 9.07675C5.13463 8.84082 5.04824 8.61352 4.89211 8.44382L2.9268 6.37873H11.1429C11.3702 6.37873 11.5882 6.28393 11.749 6.11518C11.9097 5.94643 12 5.71755 12 5.47891C12 5.24026 11.9097 5.01139 11.749 4.84264C11.5882 4.67389 11.3702 4.57909 11.1429 4.57909Z" fill="#111928"/>
</svg>
