<svg width="8" height="13" viewBox="0 0 8 13" fill="none" xmlns="http://www.w3.org/2000/svg">
<path d="M1.67863 12.7656C1.44839 12.7656 1.22332 12.6953 1.0319 12.5636C0.840472 12.4319 0.691275 12.2447 0.603171 12.0257C0.515067 11.8067 0.49201 11.5658 0.536915 11.3333C0.581821 11.1009 0.692672 10.8874 0.855455 10.7197L4.68957 6.77299L0.855455 2.82624C0.74425 2.71568 0.655549 2.58343 0.594528 2.4372C0.533507 2.29098 0.501387 2.13371 0.500044 1.97457C0.498701 1.81543 0.528161 1.65761 0.586704 1.51031C0.645247 1.36302 0.731702 1.2292 0.841023 1.11667C0.950345 1.00413 1.08034 0.915138 1.22343 0.854875C1.36653 0.794612 1.51984 0.764287 1.67444 0.76567C1.82904 0.767053 1.98182 0.800116 2.12387 0.86293C2.26593 0.925743 2.3944 1.01705 2.50181 1.13152L7.1591 5.92563C7.37738 6.15039 7.5 6.45518 7.5 6.77299C7.5 7.0908 7.37738 7.39559 7.1591 7.62035L2.50181 12.4145C2.28351 12.6392 1.9874 12.7656 1.67863 12.7656Z" fill="#111928"/>
</svg>
