<svg width="10" height="11" viewBox="0 0 10 11" fill="none" xmlns="http://www.w3.org/2000/svg">
<path fill-rule="evenodd" clip-rule="evenodd" d="M1.22591 0.983306L5 4.75739L8.77409 0.983306C8.83986 0.915204 8.91854 0.860883 9.00554 0.823514C9.09253 0.786145 9.18609 0.766475 9.28077 0.765652C9.37545 0.764829 9.46934 0.78287 9.55697 0.818722C9.6446 0.854574 9.72421 0.907519 9.79116 0.974468C9.8581 1.04142 9.91105 1.12103 9.9469 1.20866C9.98275 1.29629 10.0008 1.39018 9.99997 1.48485C9.99915 1.57953 9.97948 1.6731 9.94211 1.76009C9.90474 1.84708 9.85042 1.92576 9.78232 1.99154L6.00823 5.76562L9.78232 9.53971C9.9122 9.67419 9.98407 9.85431 9.98245 10.0413C9.98082 10.2282 9.90584 10.4071 9.77363 10.5393C9.64143 10.6715 9.46259 10.7464 9.27564 10.7481C9.08868 10.7497 8.90857 10.6778 8.77409 10.5479L5 6.77385L1.22591 10.5479C1.16014 10.616 1.08146 10.6704 0.994463 10.7077C0.90747 10.7451 0.813906 10.7648 0.71923 10.7656C0.624554 10.7664 0.530662 10.7484 0.443032 10.7125C0.355403 10.6767 0.275791 10.6237 0.208843 10.5568C0.141894 10.4898 0.088949 10.4102 0.053097 10.3226C0.017245 10.235 -0.000795788 10.1411 2.69221e-05 10.0464C0.000849632 9.95172 0.0205196 9.85815 0.057889 9.77116C0.0952584 9.68417 0.149579 9.60549 0.217681 9.53971L3.99177 5.76562L0.217681 1.99154C0.0877961 1.85706 0.015926 1.67694 0.0175506 1.48999C0.0191752 1.30303 0.0941644 1.12419 0.226367 0.991992C0.358569 0.859789 0.537407 0.7848 0.724362 0.783176C0.911317 0.781551 1.09143 0.853421 1.22591 0.983306Z" fill="currentColor"/>
</svg>
