<svg width="14" height="15" viewBox="0 0 14 15" fill="none" xmlns="http://www.w3.org/2000/svg">
<path fill-rule="evenodd" clip-rule="evenodd" d="M6.30208 2.46039C6.30202 2.46052 6.30214 2.46027 6.30208 2.46039L5.15758 4.74939C5.03562 4.99732 4.83192 5.20916 4.62271 5.36428C4.4129 5.51985 4.15218 5.65201 3.88389 5.69757L3.88218 5.69786L1.80572 6.04285C1.80564 6.04286 1.8058 6.04283 1.80572 6.04285C1.22659 6.13942 1.03793 6.3675 0.994351 6.50398C0.950614 6.64095 0.972462 6.93659 1.38715 7.35128L3.00163 8.96577C3.21151 9.17564 3.3519 9.4563 3.42932 9.72674C3.5068 9.9974 3.53577 10.3087 3.47134 10.5961L3.47062 10.5993L3.00839 12.5979C2.83625 13.3418 3.01037 13.6133 3.09879 13.6779C3.1876 13.7427 3.50032 13.8257 4.1584 13.4351L6.10854 12.2807C6.37933 12.1232 6.70357 12.0582 7.00102 12.0582C7.29794 12.0582 7.62234 12.123 7.89179 12.2826C7.89172 12.2825 7.89185 12.2826 7.89179 12.2826L9.83789 13.4346C9.83775 13.4345 9.83802 13.4347 9.83789 13.4346C10.5013 13.8264 10.8137 13.7438 10.901 13.6802C10.9873 13.6172 11.1615 13.3473 10.9887 12.5975L10.5258 10.5961C10.4614 10.3087 10.4904 9.9974 10.5678 9.72674C10.6452 9.4563 10.7856 9.17564 10.9955 8.96577L12.61 7.35128L12.6112 7.3501C13.0286 6.93552 13.0492 6.64068 13.0055 6.50487C12.9615 6.36799 12.7713 6.13955 12.1917 6.04289C12.1916 6.04287 12.1918 6.0429 12.1917 6.04289L10.115 5.69786C9.84393 5.65268 9.58116 5.52102 9.36966 5.36496C9.15902 5.20954 8.95511 4.99749 8.83308 4.74943L7.68765 2.45856C7.41371 1.9078 7.13532 1.79682 6.99776 1.79682C6.85936 1.79682 6.57922 1.90921 6.30208 2.46039ZM8.56176 2.02326C8.21724 1.33082 7.6787 0.820312 6.99776 0.820312C6.31756 0.820312 5.77735 1.32995 5.42958 2.02186L4.28336 4.3143L4.28158 4.31789C4.24719 4.3881 4.16498 4.48803 4.0411 4.57988C3.91764 4.67142 3.79788 4.72151 3.7211 4.73473C3.72087 4.73477 3.72064 4.73481 3.72041 4.73485L1.64543 5.07959C0.89671 5.20437 0.267916 5.56874 0.0641235 6.20694C-0.139521 6.84467 0.160877 7.50599 0.696655 8.04177L2.31114 9.65626C2.37468 9.7198 2.44587 9.83951 2.49052 9.99548C2.53489 10.1505 2.53864 10.2911 2.51876 10.3813C2.51867 10.3817 2.51857 10.3821 2.51848 10.3825L2.05702 12.3778C2.05701 12.3778 2.05702 12.3778 2.05702 12.3778C1.86461 13.2093 1.93135 14.0348 2.52321 14.4667C3.1147 14.8983 3.92171 14.7111 4.65676 14.2749L6.59962 13.1248C6.60003 13.1245 6.60044 13.1243 6.60084 13.124C6.68823 13.0736 6.83215 13.0347 7.00102 13.0347C7.17111 13.0347 7.31209 13.0741 7.39416 13.1228L9.34084 14.2752C10.0768 14.7099 10.8848 14.9004 11.4762 14.4693C12.0685 14.0375 12.132 13.2104 11.9402 12.3783L11.4787 10.3825C11.4786 10.3821 11.4785 10.3817 11.4784 10.3813C11.4585 10.2911 11.4623 10.1505 11.5066 9.99548C11.5513 9.83951 11.6225 9.7198 11.686 9.65626L13.2993 8.04295C13.2995 8.04273 13.2998 8.04251 13.3 8.04229C13.8391 7.50652 14.1405 6.84468 13.9352 6.20605C13.7302 5.56826 13.1002 5.20433 12.352 5.07963L10.2753 4.7346C10.2752 4.73458 10.2753 4.73461 10.2753 4.7346M8.56176 2.02326C8.56169 2.02312 8.56183 2.0234 8.56176 2.02326V2.02326Z" fill="#1A2956"/>
</svg>
