<svg width="17" height="17" viewBox="0 0 17 17" fill="none" xmlns="http://www.w3.org/2000/svg">
<path fill-rule="evenodd" clip-rule="evenodd" d="M4.28233 5.89948C3.10253 5.89948 2.1376 6.8644 2.1376 8.04421V10.2358C2.52427 10.0817 2.94516 9.99655 3.38454 9.99655C5.25438 9.99655 6.76908 11.5112 6.76908 13.3811C6.76908 13.9566 6.62289 14.5059 6.36071 14.9843H12.4622C13.642 14.9843 14.607 14.0194 14.607 12.8396V12.526H13.7875C12.7832 12.526 11.8084 11.7916 11.7162 10.7067C11.6586 10.0924 11.8926 9.51846 12.2979 9.1201C12.6624 8.7483 13.1622 8.53586 13.702 8.53586H14.607V8.04421C14.607 6.8644 13.642 5.89948 12.4622 5.89948H4.28233ZM1.0688 8.04421C1.0688 6.27413 2.51224 4.83067 4.28233 4.83067H12.4622C14.2323 4.83067 15.6758 6.27413 15.6758 8.04421V9.07026C15.6758 9.3654 15.4365 9.60466 15.1414 9.60466H13.702C13.4462 9.60466 13.2212 9.70386 13.0589 9.87057L13.0493 9.88017C12.8597 10.0652 12.7538 10.3287 12.7805 10.6085L12.7811 10.6148C12.8188 11.0673 13.2538 11.4572 13.7875 11.4572H15.1414C15.4365 11.4572 15.6758 11.6965 15.6758 11.9916V12.8396C15.6758 14.6096 14.2323 16.0531 12.4622 16.0531H5.2585C5.03382 16.0531 4.83313 15.9126 4.75631 15.7014C4.67949 15.4903 4.74294 15.2536 4.91509 15.1092C5.0882 14.964 5.2408 14.7836 5.3598 14.5796L5.36654 14.5684C5.57878 14.2242 5.70028 13.8153 5.70028 13.3811C5.70028 12.1015 4.6641 11.0654 3.38454 11.0654C2.84192 11.0654 2.33823 11.2555 1.9363 11.5759C1.7758 11.7038 1.5562 11.7285 1.37128 11.6394C1.18636 11.5504 1.0688 11.3632 1.0688 11.158V8.04421Z" fill="#1A2956"/>
<path fill-rule="evenodd" clip-rule="evenodd" d="M9.8686 2.65746C9.8686 2.08208 9.29355 1.68706 8.76119 1.88884L3.10339 4.02655C2.52141 4.24687 2.1376 4.80252 2.1376 5.42923V8.68548C2.1376 8.98062 1.89834 9.21988 1.6032 9.21988C1.30806 9.21988 1.0688 8.98062 1.0688 8.68548V5.42923C1.0688 4.3602 1.72543 3.40519 2.72515 3.02692L8.38238 0.889423C8.38228 0.889462 8.38249 0.889383 8.38238 0.889423C9.61702 0.421693 10.9374 1.33762 10.9374 2.65746V5.36509C10.9374 5.66023 10.6981 5.89949 10.403 5.89949C10.1079 5.89949 9.8686 5.66023 9.8686 5.36509V2.65746Z" fill="#1A2956"/>
<path fill-rule="evenodd" clip-rule="evenodd" d="M13.702 9.60466C13.4462 9.60466 13.2212 9.70386 13.0589 9.87057L13.0493 9.88017C12.8597 10.0652 12.7538 10.3287 12.7805 10.6085L12.7811 10.6148C12.8188 11.0673 13.2538 11.4572 13.7875 11.4572L15.171 11.4574C15.2862 11.4499 15.3614 11.3599 15.3614 11.265V9.79715C15.3614 9.70229 15.2862 9.61222 15.171 9.60479L13.702 9.60466ZM12.2979 9.1201C12.6624 8.7483 13.1622 8.53586 13.702 8.53586L15.1833 8.53599C15.1896 8.53599 15.196 8.53611 15.2023 8.53633C15.8814 8.56058 16.4302 9.11007 16.4302 9.79715V11.265C16.4302 11.9521 15.8814 12.5016 15.2023 12.5258C15.196 12.5261 15.1896 12.5262 15.1833 12.5262L13.7875 12.526C12.7832 12.526 11.8084 11.7916 11.7162 10.7067C11.6586 10.0924 11.8926 9.51846 12.2979 9.1201Z" fill="#1A2956"/>
<path fill-rule="evenodd" clip-rule="evenodd" d="M4.27521 8.39335C4.27521 8.09821 4.51447 7.85895 4.80961 7.85895H9.79735C10.0925 7.85895 10.3317 8.09821 10.3317 8.39335C10.3317 8.68849 10.0925 8.92775 9.79735 8.92775H4.80961C4.51447 8.92775 4.27521 8.68849 4.27521 8.39335Z" fill="#1A2956"/>
<path fill-rule="evenodd" clip-rule="evenodd" d="M3.38454 11.0654C2.84192 11.0654 2.33823 11.2555 1.9363 11.5759L1.93537 11.5766C1.40441 11.9979 1.0688 12.6504 1.0688 13.3811C1.0688 13.8153 1.1903 14.2242 1.40254 14.5684L1.40702 14.5757C1.8059 15.2463 2.53956 15.6968 3.38454 15.6968C3.97073 15.6968 4.49929 15.483 4.90101 15.1215C4.90563 15.1173 4.91033 15.1132 4.91509 15.1092C5.0882 14.964 5.2408 14.7836 5.3598 14.5796L5.36654 14.5684C5.57878 14.2242 5.70028 13.8153 5.70028 13.3811C5.70028 12.1015 4.6641 11.0654 3.38454 11.0654ZM1.27057 10.7397C1.85186 10.2765 2.5878 9.99655 3.38454 9.99655C5.25438 9.99655 6.76908 11.5112 6.76908 13.3811C6.76908 14.0134 6.5926 14.6142 6.27969 15.1239C6.10151 15.4278 5.87308 15.6993 5.6091 15.9221C5.01414 16.4546 4.23437 16.7656 3.38454 16.7656C2.15045 16.7656 1.07547 16.1062 0.490567 15.1258C0.176925 14.6157 0 14.0142 0 13.3811C0 12.3164 0.490739 11.3587 1.27057 10.7397Z" fill="#1A2956"/>
<path fill-rule="evenodd" clip-rule="evenodd" d="M2.25705 12.2418C2.46525 12.0326 2.80361 12.0318 3.0128 12.24L4.52338 13.7435C4.73257 13.9517 4.73337 14.29 4.52516 14.4992C4.31696 14.7084 3.9786 14.7092 3.76941 14.501L2.25884 12.9976C2.04965 12.7894 2.04885 12.451 2.25705 12.2418Z" fill="#1A2956"/>
<path fill-rule="evenodd" clip-rule="evenodd" d="M4.51125 12.263C4.71945 12.4722 4.71865 12.8106 4.50946 13.0188L2.99889 14.5222C2.7897 14.7304 2.45133 14.7296 2.24313 14.5204C2.03493 14.3113 2.03573 13.9729 2.24492 13.7647L3.75549 12.2613C3.96468 12.053 4.30305 12.0539 4.51125 12.263Z" fill="#1A2956"/>
</svg>
