<svg xmlns="http://www.w3.org/2000/svg" width="12" height="13" viewBox="0 0 12 13" fill="none">
    <path fill-rule="evenodd" clip-rule="evenodd" d="M5.4445 5.24818C4.83772 5.24818 4.34583 5.74007 4.34583 6.34684C4.34583 6.95362 4.83772 7.44551 5.4445 7.44551C6.05128 7.44551 6.54317 6.95362 6.54317 6.34684C6.54317 5.74007 6.05128 5.24818 5.4445 5.24818ZM3.54583 6.34684C3.54583 5.29824 4.39589 4.44818 5.4445 4.44818C6.4931 4.44818 7.34317 5.29824 7.34317 6.34684C7.34317 7.39545 6.4931 8.24551 5.4445 8.24551C4.39589 8.24551 3.54583 7.39545 3.54583 6.34684Z" fill="white"/>
    <path fill-rule="evenodd" clip-rule="evenodd" d="M2.27708 11.2962C2.27708 9.75465 3.77391 8.64017 5.44508 8.64017C7.11692 8.64017 8.61308 9.76052 8.61308 11.2962C8.61308 11.5171 8.434 11.6962 8.21308 11.6962C7.99217 11.6962 7.81308 11.5171 7.81308 11.2962C7.81308 10.3465 6.83458 9.44017 5.44508 9.44017C4.05492 9.44017 3.07708 10.3417 3.07708 11.2962C3.07708 11.5171 2.898 11.6962 2.67708 11.6962C2.45617 11.6962 2.27708 11.5171 2.27708 11.2962Z" fill="white"/>
    <path fill-rule="evenodd" clip-rule="evenodd" d="M5.46667 2.52292C2.88758 2.52292 0.8 4.6105 0.8 7.18958C0.8 9.76867 2.88758 11.8562 5.46667 11.8562C8.04575 11.8562 10.1333 9.76867 10.1333 7.18958C10.1333 6.66672 10.0458 6.1599 9.88643 5.68766C9.74917 5.7113 9.60888 5.72292 9.46667 5.72292C8.81575 5.72292 8.22592 5.4765 7.782 5.07235C7.59281 4.90763 7.42808 4.71145 7.30002 4.49466C7.06557 4.11303 6.93333 3.66311 6.93333 3.18958C6.93333 3.04521 6.9453 2.90412 6.96829 2.76651C6.49709 2.60783 5.9923 2.52292 5.46667 2.52292ZM0 7.18958C0 4.16867 2.44575 1.72292 5.46667 1.72292C6.21869 1.72292 6.93812 1.87225 7.59522 2.14892C7.78679 2.22959 7.88466 2.44353 7.82041 2.64121C7.76368 2.81577 7.73333 2.9981 7.73333 3.18958C7.73333 3.51459 7.82428 3.82068 7.98314 4.07829L7.98744 4.08544C8.0715 4.22835 8.1819 4.3603 8.30997 4.47129L8.31791 4.47836C8.62022 4.75475 9.02083 4.92292 9.46667 4.92292C9.65867 4.92292 9.83664 4.89242 9.99819 4.83443C10.1982 4.76262 10.4195 4.85979 10.502 5.05568C10.778 5.71122 10.9333 6.4359 10.9333 7.18958C10.9333 10.2105 8.48758 12.6562 5.46667 12.6562C2.44575 12.6562 0 10.2105 0 7.18958Z" fill="white"/>
    <path fill-rule="evenodd" clip-rule="evenodd" d="M9.46667 1.45625C8.98078 1.45625 8.53914 1.65542 8.22264 1.98059C8.04056 2.167 7.90229 2.3915 7.82041 2.64121C7.76368 2.81577 7.73333 2.9981 7.73333 3.18958C7.73333 3.51459 7.82428 3.82068 7.98314 4.07829L7.98744 4.08544C8.0715 4.22835 8.1819 4.3603 8.30997 4.47129L8.31791 4.47836C8.62022 4.75475 9.02083 4.92292 9.46667 4.92292C9.65867 4.92292 9.83664 4.89242 9.99819 4.83443C10.0031 4.83266 10.0081 4.83098 10.0131 4.82941C10.4067 4.70534 10.7391 4.43446 10.9465 4.08433L10.9503 4.07802C11.039 3.93444 11.1075 3.76783 11.1458 3.59777C11.1469 3.59266 11.1482 3.58758 11.1495 3.58251C11.1829 3.45715 11.2 3.32652 11.2 3.18958C11.2 2.74901 11.0317 2.34201 10.7536 2.03341L10.7501 2.02954C10.4411 1.6777 9.97958 1.45625 9.46667 1.45625ZM7.64961 1.42235C8.11176 0.947668 8.75801 0.65625 9.46667 0.65625C10.2115 0.65625 10.8905 0.978032 11.3495 1.49971C11.753 1.94821 12 2.54308 12 3.18958C12 3.39131 11.9751 3.58879 11.9245 3.78104C11.8667 4.03373 11.7659 4.27916 11.6329 4.49531C11.3296 5.0055 10.8443 5.40412 10.261 5.59004C10.0088 5.67958 9.7413 5.72292 9.46667 5.72292C8.81575 5.72292 8.22592 5.4765 7.782 5.07235C7.59281 4.90763 7.42808 4.71145 7.30002 4.49466C7.06557 4.11303 6.93333 3.66311 6.93333 3.18958C6.93333 2.91173 6.97765 2.64605 7.05959 2.39394L7.05988 2.39305C7.18065 2.02439 7.38391 1.69445 7.64961 1.42235Z" fill="white"/>
    <path fill-rule="evenodd" clip-rule="evenodd" d="M8.27292 3.17891C8.27292 2.95799 8.452 2.77891 8.67292 2.77891H10.2622C10.4832 2.77891 10.6622 2.95799 10.6622 3.17891C10.6622 3.39982 10.4832 3.57891 10.2622 3.57891H8.67292C8.452 3.57891 8.27292 3.39982 8.27292 3.17891Z" fill="white"/>
    <path fill-rule="evenodd" clip-rule="evenodd" d="M9.46667 2.00026C9.68758 2.00026 9.86667 2.17935 9.86667 2.40026V3.99492C9.86667 4.21584 9.68758 4.39492 9.46667 4.39492C9.24575 4.39492 9.06667 4.21584 9.06667 3.99492V2.40026C9.06667 2.17935 9.24575 2.00026 9.46667 2.00026Z" fill="white"/>
</svg>
