<svg width="16" height="12" viewBox="0 0 16 12" fill="none" xmlns="http://www.w3.org/2000/svg">
<path fill-rule="evenodd" clip-rule="evenodd" d="M6.3564 0.260278C6.60968 0.513565 6.60968 0.924225 6.3564 1.17751L1.56582 5.96809L6.3564 10.7587C6.60968 11.012 6.60968 11.4226 6.3564 11.6759C6.10311 11.9292 5.69245 11.9292 5.43916 11.6759L0.189966 6.42671C0.0683326 6.30508 0 6.14011 0 5.96809C0 5.79608 0.0683326 5.63111 0.189966 5.50948L5.43916 0.260278C5.69245 0.00699066 6.10311 0.00699066 6.3564 0.260278Z" fill="#111928"/>
<path fill-rule="evenodd" clip-rule="evenodd" d="M0.148634 5.96809C0.148634 5.60989 0.439014 5.31951 0.797216 5.31951H15.3514C15.7096 5.31951 16 5.60989 16 5.96809C16 6.3263 15.7096 6.61668 15.3514 6.61668H0.797216C0.439014 6.61668 0.148634 6.3263 0.148634 5.96809Z" fill="#111928"/>
</svg>
