<svg width="12" height="13" viewBox="0 0 12 13" fill="none" xmlns="http://www.w3.org/2000/svg">
<path fill-rule="evenodd" clip-rule="evenodd" d="M0 6.76563C0 3.46467 2.69904 0.765625 6 0.765625C9.30096 0.765625 12 3.46467 12 6.76563C12 10.0666 9.30096 12.7656 6 12.7656C2.69904 12.7656 0 10.0666 0 6.76563ZM6 1.60283C3.16142 1.60283 0.837209 3.92705 0.837209 6.76563C0.837209 9.6042 3.16142 11.9284 6 11.9284C8.83858 11.9284 11.1628 9.6042 11.1628 6.76563C11.1628 3.92705 8.83858 1.60283 6 1.60283Z" fill="#1A2956"/>
<path fill-rule="evenodd" clip-rule="evenodd" d="M3.34884 6.76563C3.34884 6.53444 3.53625 6.34702 3.76744 6.34702H8.23256C8.46375 6.34702 8.65116 6.53444 8.65116 6.76563C8.65116 6.99681 8.46375 7.18423 8.23256 7.18423H3.76744C3.53625 7.18423 3.34884 6.99681 3.34884 6.76563Z" fill="#1A2956"/>
<path fill-rule="evenodd" clip-rule="evenodd" d="M6 4.11446C6.23119 4.11446 6.4186 4.30188 6.4186 4.53307V8.99818C6.4186 9.22937 6.23119 9.41679 6 9.41679C5.76881 9.41679 5.5814 9.22937 5.5814 8.99818V4.53307C5.5814 4.30188 5.76881 4.11446 6 4.11446Z" fill="#1A2956"/>
</svg>
