<svg width="11" height="13" viewBox="0 0 11 13" fill="none" xmlns="http://www.w3.org/2000/svg">
<path d="M4.28571 2.78237H3C2.76343 2.78237 2.57143 2.59079 2.57143 2.35379C2.57143 2.11679 2.76343 1.92522 3 1.92522H4.28571C4.52229 1.92522 4.71429 2.11679 4.71429 2.35379C4.71429 2.59079 4.52229 2.78237 4.28571 2.78237ZM7.71429 2.35379C7.71429 2.11679 7.52229 1.92522 7.28571 1.92522H6C5.76343 1.92522 5.57143 2.11679 5.57143 2.35379C5.57143 2.59079 5.76343 2.78237 6 2.78237H7.28571C7.52229 2.78237 7.71429 2.59079 7.71429 2.35379ZM4.71429 4.06808C4.71429 3.83108 4.52229 3.63951 4.28571 3.63951H3C2.76343 3.63951 2.57143 3.83108 2.57143 4.06808C2.57143 4.30508 2.76343 4.49665 3 4.49665H4.28571C4.52229 4.49665 4.71429 4.30508 4.71429 4.06808ZM7.71429 4.06808C7.71429 3.83108 7.52229 3.63951 7.28571 3.63951H6C5.76343 3.63951 5.57143 3.83108 5.57143 4.06808C5.57143 4.30508 5.76343 4.49665 6 4.49665H7.28571C7.52229 4.49665 7.71429 4.30508 7.71429 4.06808ZM4.71429 5.78237C4.71429 5.54537 4.52229 5.35379 4.28571 5.35379H3C2.76343 5.35379 2.57143 5.54537 2.57143 5.78237C2.57143 6.01937 2.76343 6.21094 3 6.21094H4.28571C4.52229 6.21094 4.71429 6.01937 4.71429 5.78237ZM7.71429 5.78237C7.71429 5.54537 7.52229 5.35379 7.28571 5.35379H6C5.76343 5.35379 5.57143 5.54537 5.57143 5.78237C5.57143 6.01937 5.76343 6.21094 6 6.21094H7.28571C7.52229 6.21094 7.71429 6.01937 7.71429 5.78237ZM4.71429 7.49665C4.71429 7.25965 4.52229 7.06808 4.28571 7.06808H3C2.76343 7.06808 2.57143 7.25965 2.57143 7.49665C2.57143 7.73365 2.76343 7.92522 3 7.92522H4.28571C4.52229 7.92522 4.71429 7.73365 4.71429 7.49665ZM7.71429 7.49665C7.71429 7.25965 7.52229 7.06808 7.28571 7.06808H6C5.76343 7.06808 5.57143 7.25965 5.57143 7.49665C5.57143 7.73365 5.76343 7.92522 6 7.92522H7.28571C7.52229 7.92522 7.71429 7.73365 7.71429 7.49665Z" fill="#111928"/>
<path d="M9.85714 12.2109C10.0937 12.2109 10.2857 12.0194 10.2857 11.7824C10.2857 11.5454 10.0937 11.3538 9.85714 11.3538H9.42857V1.49665C9.42857 0.787795 8.85171 0.210938 8.14286 0.210938H2.14286C1.434 0.210938 0.857143 0.787795 0.857143 1.49665V11.3538H0.428571C0.192 11.3538 0 11.5454 0 11.7824C0 12.0194 0.192 12.2109 0.428571 12.2109H9.85714ZM4.28571 11.3538V9.63951H6V11.3538H4.28571ZM6.85714 11.3538V9.63951C6.85714 9.16679 6.47271 8.78237 6 8.78237H4.28571C3.813 8.78237 3.42857 9.16679 3.42857 9.63951V11.3538H1.71429V1.49665C1.71429 1.26008 1.90671 1.06808 2.14286 1.06808H8.14286C8.379 1.06808 8.57143 1.26008 8.57143 1.49665V11.3538H6.85714Z" fill="#111928"/>
</svg>
