<svg width="8" height="13" viewBox="0 0 8 13" fill="none" xmlns="http://www.w3.org/2000/svg">
<path d="M6.32137 12.7656C6.0126 12.7656 5.71649 12.6392 5.49819 12.4145L0.840898 7.62035C0.622621 7.39559 0.5 7.0908 0.5 6.77299C0.5 6.45518 0.622621 6.15039 0.840898 5.92563L5.49819 1.13152C5.6056 1.01705 5.73407 0.925743 5.87613 0.86293C6.01818 0.800116 6.17096 0.767053 6.32556 0.76567C6.48016 0.764287 6.63347 0.794612 6.77657 0.854875C6.91966 0.915138 7.04965 1.00413 7.15898 1.11667C7.2683 1.2292 7.35475 1.36302 7.4133 1.51031C7.47184 1.65761 7.5013 1.81543 7.49996 1.97457C7.49861 2.13371 7.46649 2.29098 7.40547 2.4372C7.34445 2.58343 7.25575 2.71568 7.14455 2.82624L3.31043 6.77299L7.14455 10.7197C7.30733 10.8874 7.41818 11.1009 7.46308 11.3333C7.50799 11.5658 7.48493 11.8067 7.39683 12.0257C7.30872 12.2447 7.15953 12.4319 6.9681 12.5636C6.77668 12.6953 6.55161 12.7656 6.32137 12.7656Z" fill="#111928"/>
</svg>
