<svg width="12" height="13" viewBox="0 0 12 13" fill="none" xmlns="http://www.w3.org/2000/svg">
<path fill-rule="evenodd" clip-rule="evenodd" d="M1.02958 1.79521C1.7744 1.05039 2.88895 0.765625 4.32558 0.765625H7.67442C9.11105 0.765625 10.2256 1.05039 10.9704 1.79521C11.7152 2.54003 12 3.65457 12 5.09121V8.44004C12 9.87668 11.7152 10.9912 10.9704 11.736C10.2256 12.4809 9.11105 12.7656 7.67442 12.7656H4.32558C2.88895 12.7656 1.7744 12.4809 1.02958 11.736C0.284763 10.9912 0 9.87668 0 8.44004V5.09121C0 3.65457 0.284763 2.54003 1.02958 1.79521ZM1.62158 2.3872C1.11059 2.8982 0.837209 3.73714 0.837209 5.09121V8.44004C0.837209 9.79411 1.11059 10.6331 1.62158 11.144C2.13257 11.655 2.97152 11.9284 4.32558 11.9284H7.67442C9.02848 11.9284 9.86743 11.655 10.3784 11.144C10.8894 10.6331 11.1628 9.79411 11.1628 8.44004V5.09121C11.1628 3.73714 10.8894 2.8982 10.3784 2.3872C9.86743 1.87621 9.02848 1.60283 7.67442 1.60283H4.32558C2.97152 1.60283 2.13257 1.87621 1.62158 2.3872Z" fill="#111928"/>
<path fill-rule="evenodd" clip-rule="evenodd" d="M6 4.11446C4.52427 4.11446 3.34884 5.29908 3.34884 6.76562C3.34884 6.99681 3.16142 7.18423 2.93023 7.18423C2.69904 7.18423 2.51163 6.99681 2.51163 6.76562C2.51163 4.83869 4.05991 3.27725 6 3.27725C7.14853 3.27725 8.00764 3.75786 8.57131 4.22848C8.59859 4.25126 8.62521 4.27403 8.65116 4.29675V3.86888C8.65116 3.63769 8.83858 3.45027 9.06977 3.45027C9.30096 3.45027 9.48837 3.63769 9.48837 3.86888V5.40376C9.48837 5.63495 9.30096 5.82237 9.06977 5.82237H7.70791C7.47672 5.82237 7.2893 5.63495 7.2893 5.40376C7.2893 5.17257 7.47672 4.98516 7.70791 4.98516H8.16493C8.1238 4.9474 8.0804 4.90927 8.03474 4.87114C7.57562 4.48781 6.89984 4.11446 6 4.11446ZM9.06977 6.34702C9.30096 6.34702 9.48837 6.53444 9.48837 6.76562C9.48837 8.69356 7.92793 10.254 6 10.254C5.00625 10.254 4.22758 9.75435 3.71767 9.29135C3.70813 9.28269 3.69867 9.27403 3.68929 9.26537V9.66237C3.68929 9.89356 3.50188 10.081 3.27069 10.081C3.0395 10.081 2.85208 9.89356 2.85208 9.66237V8.12749C2.85208 7.8963 3.0395 7.70888 3.27069 7.70888H4.65488C4.88607 7.70888 5.07349 7.8963 5.07349 8.12749C5.07349 8.35868 4.88607 8.54609 4.65488 8.54609H4.14863C4.19031 8.58761 4.23428 8.62959 4.28047 8.67153C4.71102 9.06248 5.29701 9.41679 6 9.41679C7.46556 9.41679 8.65116 8.23118 8.65116 6.76562C8.65116 6.53444 8.83858 6.34702 9.06977 6.34702Z" fill="#111928"/>
</svg>
