<svg width="12" height="13" viewBox="0 0 12 13" fill="none" xmlns="http://www.w3.org/2000/svg">
<path fill-rule="evenodd" clip-rule="evenodd" d="M0 12.347C0 12.1158 0.187416 11.9284 0.418605 11.9284H11.5814C11.8126 11.9284 12 12.1158 12 12.347C12 12.5782 11.8126 12.7656 11.5814 12.7656H0.418605C0.187416 12.7656 0 12.5782 0 12.347Z" fill="currentColor"/>
<path fill-rule="evenodd" clip-rule="evenodd" d="M4.63322 1.25553C4.88511 0.930877 5.27055 0.765625 5.74884 0.765625H6.25116C6.72945 0.765625 7.11489 0.930877 7.36678 1.25553C7.60375 1.56096 7.67442 1.94692 7.67442 2.30051V12.347C7.67442 12.5782 7.487 12.7656 7.25581 12.7656H4.74419C4.513 12.7656 4.32558 12.5782 4.32558 12.347V2.30051C4.32558 1.94692 4.39625 1.56096 4.63322 1.25553ZM5.29469 1.76874C5.21771 1.86796 5.16279 2.04015 5.16279 2.30051V11.9284H6.83721V2.30051C6.83721 2.04015 6.78229 1.86796 6.70531 1.76874C6.64325 1.68875 6.52637 1.60283 6.25116 1.60283H5.74884C5.47363 1.60283 5.35675 1.68875 5.29469 1.76874Z" fill="currentColor"/>
<path fill-rule="evenodd" clip-rule="evenodd" d="M0.827492 4.62332C1.05422 4.29456 1.41402 4.11446 1.86977 4.11446H2.31628C2.77203 4.11446 3.13182 4.29456 3.35855 4.62332C3.56709 4.92569 3.62791 5.30352 3.62791 5.64935V12.347C3.62791 12.5782 3.44049 12.7656 3.2093 12.7656H0.976744C0.745555 12.7656 0.55814 12.5782 0.55814 12.347V5.64935C0.55814 5.30352 0.618959 4.92569 0.827492 4.62332ZM1.51669 5.09863C1.44616 5.20091 1.39535 5.38121 1.39535 5.64935V11.9284H2.7907V5.64935C2.7907 5.38121 2.73989 5.20091 2.66935 5.09863C2.61701 5.02274 2.5303 4.95167 2.31628 4.95167H1.86977C1.65575 4.95167 1.56903 5.02274 1.51669 5.09863Z" fill="currentColor"/>
<path fill-rule="evenodd" clip-rule="evenodd" d="M8.64145 7.41402C8.86818 7.08526 9.22797 6.90516 9.68372 6.90516H10.1302C10.586 6.90516 10.9458 7.08526 11.1725 7.41402C11.381 7.71639 11.4419 8.09422 11.4419 8.44004V12.347C11.4419 12.5782 11.2544 12.7656 11.0233 12.7656H8.7907C8.55951 12.7656 8.37209 12.5782 8.37209 12.347V8.44004C8.37209 8.09422 8.43291 7.71639 8.64145 7.41402ZM9.33065 7.88933C9.26011 7.99161 9.2093 8.17191 9.2093 8.44004V11.9284H10.6047V8.44004C10.6047 8.17191 10.5538 7.99161 10.4833 7.88933C10.431 7.81344 10.3443 7.74237 10.1302 7.74237H9.68372C9.4697 7.74237 9.38299 7.81344 9.33065 7.88933Z" fill="currentColor"/>
</svg>
