<svg width="12" height="13" viewBox="0 0 12 13" fill="none" xmlns="http://www.w3.org/2000/svg">
<path fill-rule="evenodd" clip-rule="evenodd" d="M0.418605 0.765625C0.649794 0.765625 0.837209 0.953041 0.837209 1.18423V10.6726C0.837209 11.3679 1.3977 11.9284 2.09302 11.9284H11.5814C11.8126 11.9284 12 12.1158 12 12.347C12 12.5782 11.8126 12.7656 11.5814 12.7656H2.09302C0.935323 12.7656 0 11.8303 0 10.6726V1.18423C0 0.953041 0.187416 0.765625 0.418605 0.765625Z" fill="currentColor"/>
<path fill-rule="evenodd" clip-rule="evenodd" d="M11.2956 3.65702C11.4712 3.80742 11.4916 4.07168 11.3412 4.24725L8.77373 7.24446L8.77262 7.24574C8.18992 7.92045 7.15462 7.95969 6.52447 7.32954L5.99244 6.7975C5.71017 6.51179 5.24019 6.52809 4.9722 6.83773L4.97169 6.83831L2.41098 9.8286C2.2606 10.0042 1.99635 10.0247 1.82075 9.87428C1.64514 9.7239 1.62469 9.45965 1.77507 9.28404L4.33693 6.29243L4.33807 6.29109C4.91824 5.61932 5.95405 5.56853 6.58704 6.20811L6.58802 6.2091L7.11647 6.73754C7.4015 7.02258 7.8728 7.00616 8.13855 6.69905L8.139 6.69853L10.7053 3.7026C10.8557 3.52702 11.12 3.50661 11.2956 3.65702Z" fill="currentColor"/>
</svg>
