<svg width="16" height="17" viewBox="0 0 16 17" fill="none" xmlns="http://www.w3.org/2000/svg">
<path fill-rule="evenodd" clip-rule="evenodd" d="M3.37778 11.0767C2.10077 11.0767 1.06667 12.1108 1.06667 13.3878C1.06667 13.8212 1.18792 14.2293 1.39974 14.5728L1.40421 14.58C1.8023 15.2493 2.53449 15.699 3.37778 15.699C4.22107 15.699 4.95332 15.2493 5.3514 14.5801L5.35576 14.5728C5.56757 14.2293 5.68889 13.8212 5.68889 13.3878C5.68889 12.1108 4.65478 11.0767 3.37778 11.0767ZM0 13.3878C0 11.5217 1.51167 10.0101 3.37778 10.0101C5.24389 10.0101 6.75556 11.5217 6.75556 13.3878C6.75556 14.0197 6.57898 14.62 6.26596 15.1291C5.68222 16.1076 4.60939 16.7656 3.37778 16.7656C2.14616 16.7656 1.07333 16.1076 0.489587 15.129C0.176572 14.62 0 14.0197 0 13.3878Z" fill="#1A2956"/>
<path fill-rule="evenodd" clip-rule="evenodd" d="M4.87966 12.3285C5.07966 12.5447 5.06649 12.8822 4.85024 13.0822L3.33557 14.483C3.12527 14.6775 2.79888 14.6712 2.59632 14.4686L1.89232 13.7646C1.68404 13.5563 1.68404 13.2187 1.89232 13.0104C2.1006 12.8021 2.43829 12.8021 2.64657 13.0104L2.98788 13.3517L4.12599 12.2991C4.34223 12.0991 4.67966 12.1123 4.87966 12.3285Z" fill="#1A2956"/>
<path fill-rule="evenodd" clip-rule="evenodd" d="M7.32525 2.40185L5.41183 4.32117H11.7854C11.6911 4.08256 11.5451 3.85902 11.346 3.66301L11.3408 3.65795L10.0983 2.40114C9.33218 1.64244 8.09104 1.64268 7.32525 2.40185ZM4.26032 3.9654L6.57281 1.64579C7.755 0.472234 9.66923 0.47224 10.8514 1.64579L10.8549 1.6493L12.097 2.90551C12.6472 3.44847 12.9434 4.14337 12.9782 4.86438C12.9859 5.02546 12.9204 5.1814 12.7999 5.28858C12.6794 5.39575 12.5168 5.44264 12.3578 5.41613C12.2298 5.39481 12.086 5.38784 11.9121 5.38784H4.801C4.62731 5.38784 4.46249 5.40024 4.3061 5.4243C4.10902 5.45462 3.91148 5.37247 3.79402 5.21133C3.67656 5.0502 3.6588 4.837 3.74797 4.65865C3.87887 4.39687 4.05949 4.16628 4.26032 3.9654Z" fill="#1A2956"/>
<path fill-rule="evenodd" clip-rule="evenodd" d="M4.8 5.38785C4.62631 5.38785 4.46149 5.40025 4.3051 5.42431L4.29041 5.42636C3.50298 5.52518 2.88397 5.86231 2.46012 6.35959C2.03518 6.85815 1.77778 7.55166 1.77778 8.41007V10.414C2.25266 10.1571 2.79718 10.0101 3.37778 10.0101C5.24389 10.0101 6.75556 11.5217 6.75556 13.3878C6.75556 13.9622 6.60966 14.5105 6.348 14.9878H11.9111C12.8566 14.9878 13.603 14.675 14.1118 14.1663C14.6205 13.6575 14.9333 12.9111 14.9333 11.9656V8.41007C14.9333 7.54586 14.6714 6.84802 14.2398 6.34784C13.8091 5.8488 13.1805 5.51258 12.3828 5.41982C12.3741 5.41881 12.3654 5.41758 12.3568 5.41614C12.2288 5.39482 12.085 5.38785 11.9111 5.38785H4.8ZM4.15028 4.36892C4.36133 4.33685 4.57806 4.32118 4.8 4.32118H11.9111C12.1029 4.32118 12.3099 4.32812 12.5188 4.36179C13.5502 4.48455 14.4281 4.93338 15.0473 5.65096C15.6681 6.37034 16 7.32584 16 8.41007V11.9656C16 13.1535 15.6017 14.1848 14.866 14.9205C14.1303 15.6562 13.099 16.0545 11.9111 16.0545H5.248C5.02377 16.0545 4.82348 15.9143 4.74681 15.7035C4.67014 15.4928 4.73347 15.2566 4.90527 15.1125C5.07804 14.9676 5.23033 14.7876 5.34909 14.584L5.35576 14.5728C5.56757 14.2293 5.68889 13.8212 5.68889 13.3878C5.68889 12.1108 4.65478 11.0767 3.37778 11.0767C2.6855 11.0767 2.068 11.3817 1.64492 11.8627C1.49834 12.0294 1.26388 12.0878 1.05622 12.0095C0.848559 11.9312 0.711111 11.7324 0.711111 11.5105V8.41007C0.711111 7.33425 1.03682 6.3851 1.64832 5.66766C2.25946 4.95065 3.12755 4.49889 4.15028 4.36892Z" fill="#1A2956"/>
<path fill-rule="evenodd" clip-rule="evenodd" d="M11.3778 10.1878C11.3778 9.11107 12.2566 8.23229 13.3333 8.23229H15.4667C15.7612 8.23229 16 8.47107 16 8.76562C16 9.06018 15.7612 9.29896 15.4667 9.29896H13.3333C12.8457 9.29896 12.4444 9.70018 12.4444 10.1878C12.4444 10.6755 12.8457 11.0767 13.3333 11.0767H15.4667C15.7612 11.0767 16 11.3155 16 11.6101C16 11.9046 15.7612 12.1434 15.4667 12.1434H13.3333C12.2566 12.1434 11.3778 11.2646 11.3778 10.1878Z" fill="#1A2956"/>
</svg>
