<svg width="12" height="13" viewBox="0 0 12 13" fill="none" xmlns="http://www.w3.org/2000/svg">
<path fill-rule="evenodd" clip-rule="evenodd" d="M6.44765 1.05989C7.00276 0.660375 7.79846 0.701271 8.75663 0.981712C10.1669 1.39651 11.369 2.59823 11.7838 4.00853C12.0643 4.9667 12.1053 5.76295 11.7058 6.31806C11.3005 6.88124 10.5717 7.02009 9.80767 7.02009H7.90017C7.25875 7.02009 6.68709 6.85887 6.28729 6.41509C5.89666 5.9815 5.74562 5.35994 5.74562 4.61274V2.95804C5.74562 2.19396 5.88447 1.46521 6.44765 1.05989ZM6.95108 1.75939C6.75586 1.89989 6.60744 2.2283 6.60744 2.95804V4.61274C6.60744 5.26744 6.74366 5.63409 6.92759 5.83825C7.10233 6.03222 7.3925 6.15827 7.90017 6.15827H9.80767C10.5374 6.15827 10.8658 6.00985 11.0063 5.81463C11.1526 5.61137 11.228 5.17763 10.957 4.25157C10.6249 3.12253 9.64333 2.14096 8.51431 1.80877C7.58813 1.53772 7.15435 1.61309 6.95108 1.75939Z" fill="currentColor"/>
<path fill-rule="evenodd" clip-rule="evenodd" d="M5.0253 1.91231C5.07284 2.1455 4.92235 2.37308 4.68917 2.42063C2.25955 2.91604 0.499036 5.25621 0.926142 7.91037C1.25269 9.9052 2.86172 11.5135 4.8554 11.8344L4.85599 11.8345C7.52035 12.2671 9.86086 10.4968 10.3512 8.05546C10.3981 7.82213 10.6252 7.67098 10.8586 7.71785C11.0919 7.76471 11.2431 7.99185 11.1962 8.22518C10.6179 11.1041 7.85644 13.1948 4.71786 12.6852C2.35691 12.3049 0.461584 10.4088 0.0755451 8.04901L0.0753733 8.04795C-0.427946 4.9224 1.64944 2.16089 4.51698 1.57618C4.75017 1.52864 4.97775 1.67913 5.0253 1.91231Z" fill="currentColor"/>
</svg>
